# xmcd
#
# Track frame offsets:
#	150
#	20394
#	42018
#	64194
#	90581
#	110158
#	135047
#	163920
#	186714
#	208228
#	229468
#	248793
#
# Disc length: 3597 seconds
#
# Revision: 0
# Processed by: cddbd v1.4PL0 Copyright (c) Steve Scherf et al.
# Submitted via: dBpowerAMP V4.0
#
DISCID=ab0e0b0c
DTITLE=Russ Wilson and His Mighty Men - Roaring At The Red Lion
DYEAR=1900
DGENRE=R&B
TTITLE0=Intro by Bill Hunt
TTITLE1=The Hustle Is On
TTITLE2=The Chicken and The Hawk
TTITLE3=It's A Crime
TTITLE4=Farther Up The Road
TTITLE5=You Know It Ain't Right
TTITLE6=She Moves Me
TTITLE7=Jump Jive and Wail
TTITLE8=Jail Bait
TTITLE9=Please Accept My Love
TTITLE10=Pinetop's Boogie
TTITLE11=Roll Your Money Maker
EXTD=
EXTT0=
EXTT1=
EXTT2=
EXTT3=
EXTT4=
EXTT5=
EXTT6=
EXTT7=
EXTT8=
EXTT9=
EXTT10=
EXTT11=
PLAYORDER=
